<mxfile host="app.diagrams.net" modified="2023-06-22T13:18:12.852Z" agent="Mozilla/5.0 (Windows NT 10.0; Win64; x64) AppleWebKit/537.36 (KHTML, like Gecko) Chrome/114.0.0.0 Safari/537.36" etag="zUytbv-MbyYNb2deb9pm" version="21.5.0" type="device">
  <diagram name="Page-1" id="7cxJLYrIOp2Cm49gknRG">
    <mxGraphModel dx="1050" dy="1681" grid="1" gridSize="10" guides="1" tooltips="1" connect="1" arrows="1" fold="1" page="1" pageScale="1" pageWidth="850" pageHeight="1100" math="0" shadow="0">
      <root>
        <mxCell id="0" />
        <mxCell id="1" parent="0" />
        <mxCell id="ULZJDO0v6zIy5SxoiYi7-3" value="" style="edgeStyle=orthogonalEdgeStyle;rounded=0;orthogonalLoop=1;jettySize=auto;html=1;entryX=0.5;entryY=0;entryDx=0;entryDy=0;entryPerimeter=0;" edge="1" parent="1" source="ULZJDO0v6zIy5SxoiYi7-1" target="ULZJDO0v6zIy5SxoiYi7-5">
          <mxGeometry relative="1" as="geometry">
            <mxPoint x="150" y="140" as="targetPoint" />
          </mxGeometry>
        </mxCell>
        <mxCell id="ULZJDO0v6zIy5SxoiYi7-1" value="Entity" style="whiteSpace=wrap;html=1;aspect=fixed;" vertex="1" parent="1">
          <mxGeometry x="120" width="60" height="60" as="geometry" />
        </mxCell>
        <mxCell id="ULZJDO0v6zIy5SxoiYi7-8" value="" style="edgeStyle=orthogonalEdgeStyle;rounded=0;orthogonalLoop=1;jettySize=auto;html=1;" edge="1" parent="1" source="ULZJDO0v6zIy5SxoiYi7-5" target="ULZJDO0v6zIy5SxoiYi7-7">
          <mxGeometry relative="1" as="geometry" />
        </mxCell>
        <mxCell id="ULZJDO0v6zIy5SxoiYi7-10" value="" style="edgeStyle=orthogonalEdgeStyle;rounded=0;orthogonalLoop=1;jettySize=auto;html=1;" edge="1" parent="1" source="ULZJDO0v6zIy5SxoiYi7-5" target="ULZJDO0v6zIy5SxoiYi7-9">
          <mxGeometry relative="1" as="geometry" />
        </mxCell>
        <mxCell id="ULZJDO0v6zIy5SxoiYi7-5" value="int x&lt;br&gt;int y&lt;br&gt;int speed&lt;br&gt;String direction&lt;br&gt;Rectangle collisionArea&lt;br&gt;boolean collisionOn&lt;br&gt;ArrayList&amp;lt;Image&amp;gt; textures&lt;br&gt;int currentImageIndex&lt;br&gt;int frameCount&lt;br&gt;GamePanel gp" style="whiteSpace=wrap;html=1;shape=mxgraph.basic.document;align=left;" vertex="1" parent="1">
          <mxGeometry x="65" y="110" width="170" height="150" as="geometry" />
        </mxCell>
        <mxCell id="ULZJDO0v6zIy5SxoiYi7-7" value="Player" style="whiteSpace=wrap;html=1;align=center;" vertex="1" parent="1">
          <mxGeometry y="350" width="120" height="60" as="geometry" />
        </mxCell>
        <mxCell id="ULZJDO0v6zIy5SxoiYi7-12" style="edgeStyle=orthogonalEdgeStyle;rounded=0;orthogonalLoop=1;jettySize=auto;html=1;exitX=0.5;exitY=1;exitDx=0;exitDy=0;entryX=0.5;entryY=0;entryDx=0;entryDy=0;entryPerimeter=0;" edge="1" parent="1" source="ULZJDO0v6zIy5SxoiYi7-9" target="ULZJDO0v6zIy5SxoiYi7-11">
          <mxGeometry relative="1" as="geometry" />
        </mxCell>
        <mxCell id="ULZJDO0v6zIy5SxoiYi7-9" value="Zombie" style="whiteSpace=wrap;html=1;align=center;" vertex="1" parent="1">
          <mxGeometry x="180" y="350" width="120" height="60" as="geometry" />
        </mxCell>
        <mxCell id="ULZJDO0v6zIy5SxoiYi7-11" value="boolean isChasing&lt;br&gt;&lt;div&gt;boolean isNearPlayer&lt;/div&gt;&lt;div&gt;int targetX&lt;/div&gt;&lt;div&gt;int targetY&lt;/div&gt;" style="whiteSpace=wrap;html=1;shape=mxgraph.basic.document;align=left;" vertex="1" parent="1">
          <mxGeometry x="150" y="450" width="180" height="70" as="geometry" />
        </mxCell>
        <mxCell id="ULZJDO0v6zIy5SxoiYi7-26" style="edgeStyle=orthogonalEdgeStyle;rounded=0;orthogonalLoop=1;jettySize=auto;html=1;exitX=0.5;exitY=1;exitDx=0;exitDy=0;entryX=0.5;entryY=0;entryDx=0;entryDy=0;" edge="1" parent="1" source="ULZJDO0v6zIy5SxoiYi7-19" target="ULZJDO0v6zIy5SxoiYi7-24">
          <mxGeometry relative="1" as="geometry" />
        </mxCell>
        <mxCell id="ULZJDO0v6zIy5SxoiYi7-27" style="edgeStyle=orthogonalEdgeStyle;rounded=0;orthogonalLoop=1;jettySize=auto;html=1;exitX=0.5;exitY=1;exitDx=0;exitDy=0;entryX=0.5;entryY=0;entryDx=0;entryDy=0;" edge="1" parent="1" source="ULZJDO0v6zIy5SxoiYi7-19" target="ULZJDO0v6zIy5SxoiYi7-21">
          <mxGeometry relative="1" as="geometry" />
        </mxCell>
        <mxCell id="ULZJDO0v6zIy5SxoiYi7-29" style="edgeStyle=orthogonalEdgeStyle;rounded=0;orthogonalLoop=1;jettySize=auto;html=1;exitX=0.5;exitY=1;exitDx=0;exitDy=0;entryX=0.5;entryY=0;entryDx=0;entryDy=0;" edge="1" parent="1" source="ULZJDO0v6zIy5SxoiYi7-19" target="ULZJDO0v6zIy5SxoiYi7-28">
          <mxGeometry relative="1" as="geometry" />
        </mxCell>
        <mxCell id="ULZJDO0v6zIy5SxoiYi7-34" style="edgeStyle=orthogonalEdgeStyle;rounded=0;orthogonalLoop=1;jettySize=auto;html=1;exitX=0.5;exitY=1;exitDx=0;exitDy=0;entryX=0.5;entryY=0;entryDx=0;entryDy=0;" edge="1" parent="1" source="ULZJDO0v6zIy5SxoiYi7-19" target="ULZJDO0v6zIy5SxoiYi7-32">
          <mxGeometry relative="1" as="geometry" />
        </mxCell>
        <mxCell id="ULZJDO0v6zIy5SxoiYi7-39" style="edgeStyle=orthogonalEdgeStyle;rounded=0;orthogonalLoop=1;jettySize=auto;html=1;exitX=0.5;exitY=1;exitDx=0;exitDy=0;entryX=0.5;entryY=0;entryDx=0;entryDy=0;" edge="1" parent="1" source="ULZJDO0v6zIy5SxoiYi7-19" target="ULZJDO0v6zIy5SxoiYi7-36">
          <mxGeometry relative="1" as="geometry" />
        </mxCell>
        <mxCell id="ULZJDO0v6zIy5SxoiYi7-41" style="edgeStyle=orthogonalEdgeStyle;rounded=0;orthogonalLoop=1;jettySize=auto;html=1;exitX=0.5;exitY=1;exitDx=0;exitDy=0;entryX=0.5;entryY=0;entryDx=0;entryDy=0;" edge="1" parent="1" source="ULZJDO0v6zIy5SxoiYi7-19" target="ULZJDO0v6zIy5SxoiYi7-40">
          <mxGeometry relative="1" as="geometry" />
        </mxCell>
        <mxCell id="ULZJDO0v6zIy5SxoiYi7-19" value="Game Package" style="whiteSpace=wrap;html=1;aspect=fixed;" vertex="1" parent="1">
          <mxGeometry x="565" y="-10" width="110" height="110" as="geometry" />
        </mxCell>
        <mxCell id="ULZJDO0v6zIy5SxoiYi7-20" value="" style="edgeStyle=orthogonalEdgeStyle;rounded=0;orthogonalLoop=1;jettySize=auto;html=1;entryX=0.5;entryY=0;entryDx=0;entryDy=0;entryPerimeter=0;" edge="1" parent="1" source="ULZJDO0v6zIy5SxoiYi7-21" target="ULZJDO0v6zIy5SxoiYi7-22">
          <mxGeometry relative="1" as="geometry">
            <mxPoint x="515" y="320" as="targetPoint" />
          </mxGeometry>
        </mxCell>
        <mxCell id="ULZJDO0v6zIy5SxoiYi7-21" value="&lt;pre style=&quot;font-family: &amp;quot;JetBrains Mono&amp;quot;, monospace;&quot;&gt;&lt;span style=&quot;background-color: rgb(255, 255, 255);&quot;&gt;Camera&lt;/span&gt;&lt;/pre&gt;" style="whiteSpace=wrap;html=1;aspect=fixed;" vertex="1" parent="1">
          <mxGeometry x="490" y="180" width="60" height="60" as="geometry" />
        </mxCell>
        <mxCell id="ULZJDO0v6zIy5SxoiYi7-22" value="int x&lt;br&gt;int y" style="whiteSpace=wrap;html=1;shape=mxgraph.basic.document;align=left;" vertex="1" parent="1">
          <mxGeometry x="500" y="270" width="40" height="40" as="geometry" />
        </mxCell>
        <mxCell id="ULZJDO0v6zIy5SxoiYi7-23" value="" style="edgeStyle=orthogonalEdgeStyle;rounded=0;orthogonalLoop=1;jettySize=auto;html=1;entryX=0.5;entryY=0;entryDx=0;entryDy=0;entryPerimeter=0;" edge="1" parent="1" source="ULZJDO0v6zIy5SxoiYi7-24" target="ULZJDO0v6zIy5SxoiYi7-25">
          <mxGeometry relative="1" as="geometry">
            <mxPoint x="415" y="320" as="targetPoint" />
          </mxGeometry>
        </mxCell>
        <mxCell id="ULZJDO0v6zIy5SxoiYi7-24" value="&lt;pre style=&quot;font-family: &amp;quot;JetBrains Mono&amp;quot;, monospace;&quot;&gt;&lt;span style=&quot;background-color: rgb(255, 255, 255);&quot;&gt;Camera&lt;/span&gt;&lt;/pre&gt;" style="whiteSpace=wrap;html=1;aspect=fixed;" vertex="1" parent="1">
          <mxGeometry x="385" y="180" width="60" height="60" as="geometry" />
        </mxCell>
        <mxCell id="ULZJDO0v6zIy5SxoiYi7-25" value="GamePanel gp" style="whiteSpace=wrap;html=1;shape=mxgraph.basic.document;align=left;" vertex="1" parent="1">
          <mxGeometry x="370" y="270" width="90" height="60" as="geometry" />
        </mxCell>
        <mxCell id="ULZJDO0v6zIy5SxoiYi7-28" value="&lt;pre style=&quot;font-family: &amp;quot;JetBrains Mono&amp;quot;, monospace;&quot;&gt;&lt;span style=&quot;background-color: rgb(255, 255, 255);&quot;&gt;GameLauncher&lt;/span&gt;&lt;/pre&gt;" style="whiteSpace=wrap;html=1;aspect=fixed;" vertex="1" parent="1">
          <mxGeometry x="590" y="180" width="60" height="60" as="geometry" />
        </mxCell>
        <mxCell id="ULZJDO0v6zIy5SxoiYi7-35" style="edgeStyle=orthogonalEdgeStyle;rounded=0;orthogonalLoop=1;jettySize=auto;html=1;exitX=0.5;exitY=1;exitDx=0;exitDy=0;entryX=0.5;entryY=0;entryDx=0;entryDy=0;entryPerimeter=0;" edge="1" parent="1" source="ULZJDO0v6zIy5SxoiYi7-32" target="ULZJDO0v6zIy5SxoiYi7-33">
          <mxGeometry relative="1" as="geometry" />
        </mxCell>
        <mxCell id="ULZJDO0v6zIy5SxoiYi7-32" value="&lt;pre style=&quot;font-family: &amp;quot;JetBrains Mono&amp;quot;, monospace;&quot;&gt;&lt;span style=&quot;background-color: rgb(255, 255, 255);&quot;&gt;KeyHandler&lt;/span&gt;&lt;/pre&gt;" style="whiteSpace=wrap;html=1;aspect=fixed;" vertex="1" parent="1">
          <mxGeometry x="690" y="180" width="60" height="60" as="geometry" />
        </mxCell>
        <mxCell id="ULZJDO0v6zIy5SxoiYi7-33" value="boolean upPressed&lt;br&gt;boolean downPressed&lt;br&gt;boolean leftPressed&lt;br&gt;boolean rightPressed" style="whiteSpace=wrap;html=1;shape=mxgraph.basic.document;align=left;" vertex="1" parent="1">
          <mxGeometry x="655" y="270" width="130" height="80" as="geometry" />
        </mxCell>
        <mxCell id="ULZJDO0v6zIy5SxoiYi7-38" style="edgeStyle=orthogonalEdgeStyle;rounded=0;orthogonalLoop=1;jettySize=auto;html=1;exitX=0.5;exitY=1;exitDx=0;exitDy=0;entryX=0.5;entryY=0;entryDx=0;entryDy=0;entryPerimeter=0;" edge="1" parent="1" source="ULZJDO0v6zIy5SxoiYi7-36" target="ULZJDO0v6zIy5SxoiYi7-37">
          <mxGeometry relative="1" as="geometry" />
        </mxCell>
        <mxCell id="ULZJDO0v6zIy5SxoiYi7-36" value="&lt;pre style=&quot;font-family: &amp;quot;JetBrains Mono&amp;quot;, monospace;&quot;&gt;&lt;span style=&quot;background-color: rgb(255, 255, 255);&quot;&gt;GamePanel&lt;/span&gt;&lt;/pre&gt;" style="whiteSpace=wrap;html=1;aspect=fixed;" vertex="1" parent="1">
          <mxGeometry x="920" y="180" width="60" height="60" as="geometry" />
        </mxCell>
        <mxCell id="ULZJDO0v6zIy5SxoiYi7-37" value="&lt;p style=&quot;line-height: 50%;&quot; class=&quot;MsoNormal&quot;&gt;int OBJECT_SIZE&lt;/p&gt;&lt;p style=&quot;line-height: 50%;&quot; class=&quot;MsoNormal&quot;&gt;int SCREEN_COL&lt;/p&gt;&lt;p style=&quot;line-height: 50%;&quot; class=&quot;MsoNormal&quot;&gt;int SCREEN_ROW&lt;/p&gt;&lt;p style=&quot;line-height: 50%;&quot; class=&quot;MsoNormal&quot;&gt;int SCREEN_WIDTH&lt;/p&gt;&lt;p style=&quot;line-height: 50%;&quot; class=&quot;MsoNormal&quot;&gt;int SCREEN_HEIGHT&lt;/p&gt;&lt;p style=&quot;line-height: 50%;&quot; class=&quot;MsoNormal&quot;&gt;Camera camera;&lt;/p&gt;&lt;p style=&quot;line-height: 50%;&quot; class=&quot;MsoNormal&quot;&gt;int maxWorldCol&lt;/p&gt;&lt;p style=&quot;line-height: 50%;&quot; class=&quot;MsoNormal&quot;&gt;int maxWorldRow&lt;/p&gt;&lt;p style=&quot;line-height: 50%;&quot; class=&quot;MsoNormal&quot;&gt;int worldWidth&lt;/p&gt;&lt;p style=&quot;line-height: 50%;&quot; class=&quot;MsoNormal&quot;&gt;int worldHeight&lt;/p&gt;&lt;p style=&quot;line-height: 50%;&quot; class=&quot;MsoNormal&quot;&gt;int FPS&lt;/p&gt;&lt;p style=&quot;line-height: 50%;&quot; class=&quot;MsoNormal&quot;&gt;Thread gameThread;&lt;/p&gt;&lt;p style=&quot;line-height: 50%;&quot; class=&quot;MsoNormal&quot;&gt;CollisionChecker collisionChecker;&lt;/p&gt;&lt;p style=&quot;line-height: 50%;&quot; class=&quot;MsoNormal&quot;&gt;Player player;&lt;/p&gt;&lt;p style=&quot;line-height: 50%;&quot; class=&quot;MsoNormal&quot;&gt;Zombie zombie;&lt;/p&gt;&lt;p style=&quot;line-height: 50%;&quot; class=&quot;MsoNormal&quot;&gt;KeyHandler keyHandler;&lt;/p&gt;&lt;p style=&quot;line-height: 50%;&quot; class=&quot;MsoNormal&quot;&gt;TileManager tileM;&lt;/p&gt;&lt;div style=&quot;line-height: 50%;&quot;&gt;&lt;br&gt;&lt;/div&gt;" style="whiteSpace=wrap;html=1;shape=mxgraph.basic.document;align=left;" vertex="1" parent="1">
          <mxGeometry x="850" y="270" width="195" height="310" as="geometry" />
        </mxCell>
        <mxCell id="ULZJDO0v6zIy5SxoiYi7-40" value="&lt;pre style=&quot;font-family: &amp;quot;JetBrains Mono&amp;quot;, monospace;&quot;&gt;&lt;span style=&quot;background-color: rgb(255, 255, 255);&quot;&gt;Window&lt;/span&gt;&lt;/pre&gt;" style="whiteSpace=wrap;html=1;aspect=fixed;" vertex="1" parent="1">
          <mxGeometry x="810" y="180" width="60" height="60" as="geometry" />
        </mxCell>
        <mxCell id="ULZJDO0v6zIy5SxoiYi7-52" style="edgeStyle=orthogonalEdgeStyle;rounded=0;orthogonalLoop=1;jettySize=auto;html=1;exitX=0.5;exitY=1;exitDx=0;exitDy=0;entryX=0.5;entryY=0;entryDx=0;entryDy=0;" edge="1" parent="1" source="ULZJDO0v6zIy5SxoiYi7-42" target="ULZJDO0v6zIy5SxoiYi7-45">
          <mxGeometry relative="1" as="geometry" />
        </mxCell>
        <mxCell id="ULZJDO0v6zIy5SxoiYi7-53" style="edgeStyle=orthogonalEdgeStyle;rounded=0;orthogonalLoop=1;jettySize=auto;html=1;exitX=0.5;exitY=1;exitDx=0;exitDy=0;entryX=0.5;entryY=0;entryDx=0;entryDy=0;" edge="1" parent="1" source="ULZJDO0v6zIy5SxoiYi7-42" target="ULZJDO0v6zIy5SxoiYi7-46">
          <mxGeometry relative="1" as="geometry" />
        </mxCell>
        <mxCell id="ULZJDO0v6zIy5SxoiYi7-42" value="Tile Package" style="whiteSpace=wrap;html=1;aspect=fixed;" vertex="1" parent="1">
          <mxGeometry x="326.25" y="580" width="110" height="110" as="geometry" />
        </mxCell>
        <mxCell id="ULZJDO0v6zIy5SxoiYi7-49" style="edgeStyle=orthogonalEdgeStyle;rounded=0;orthogonalLoop=1;jettySize=auto;html=1;exitX=0.5;exitY=1;exitDx=0;exitDy=0;entryX=0.5;entryY=0;entryDx=0;entryDy=0;entryPerimeter=0;" edge="1" parent="1" source="ULZJDO0v6zIy5SxoiYi7-45" target="ULZJDO0v6zIy5SxoiYi7-48">
          <mxGeometry relative="1" as="geometry" />
        </mxCell>
        <mxCell id="ULZJDO0v6zIy5SxoiYi7-45" value="&lt;pre style=&quot;font-family: &amp;quot;JetBrains Mono&amp;quot;, monospace;&quot;&gt;&lt;span style=&quot;background-color: rgb(255, 255, 255);&quot;&gt;Tile&lt;/span&gt;&lt;/pre&gt;" style="whiteSpace=wrap;html=1;aspect=fixed;" vertex="1" parent="1">
          <mxGeometry x="266.25" y="760" width="60" height="60" as="geometry" />
        </mxCell>
        <mxCell id="ULZJDO0v6zIy5SxoiYi7-51" style="edgeStyle=orthogonalEdgeStyle;rounded=0;orthogonalLoop=1;jettySize=auto;html=1;exitX=0.5;exitY=1;exitDx=0;exitDy=0;entryX=0.5;entryY=0;entryDx=0;entryDy=0;entryPerimeter=0;" edge="1" parent="1" source="ULZJDO0v6zIy5SxoiYi7-46" target="ULZJDO0v6zIy5SxoiYi7-50">
          <mxGeometry relative="1" as="geometry" />
        </mxCell>
        <mxCell id="ULZJDO0v6zIy5SxoiYi7-46" value="&lt;pre style=&quot;font-family: &amp;quot;JetBrains Mono&amp;quot;, monospace;&quot;&gt;&lt;span style=&quot;background-color: rgb(255, 255, 255);&quot;&gt;TileManager&lt;/span&gt;&lt;/pre&gt;" style="whiteSpace=wrap;html=1;aspect=fixed;" vertex="1" parent="1">
          <mxGeometry x="436.25" y="760" width="80" height="80" as="geometry" />
        </mxCell>
        <mxCell id="ULZJDO0v6zIy5SxoiYi7-48" value="Image image&lt;br&gt;boolean collision" style="whiteSpace=wrap;html=1;shape=mxgraph.basic.document;align=left;" vertex="1" parent="1">
          <mxGeometry x="248.75" y="860" width="95" height="60" as="geometry" />
        </mxCell>
        <mxCell id="ULZJDO0v6zIy5SxoiYi7-50" value="GamePanel gp&lt;br&gt;ArrayList&amp;lt;Tile&amp;gt; tile&lt;br&gt;WorldGenerator worldGenerator" style="whiteSpace=wrap;html=1;shape=mxgraph.basic.document;align=left;" vertex="1" parent="1">
          <mxGeometry x="387.5" y="870" width="177.5" height="80" as="geometry" />
        </mxCell>
        <mxCell id="ULZJDO0v6zIy5SxoiYi7-55" style="edgeStyle=orthogonalEdgeStyle;rounded=0;orthogonalLoop=1;jettySize=auto;html=1;exitX=0.5;exitY=1;exitDx=0;exitDy=0;entryX=0.5;entryY=0;entryDx=0;entryDy=0;" edge="1" parent="1" source="ULZJDO0v6zIy5SxoiYi7-54" target="ULZJDO0v6zIy5SxoiYi7-42">
          <mxGeometry relative="1" as="geometry" />
        </mxCell>
        <mxCell id="ULZJDO0v6zIy5SxoiYi7-58" style="edgeStyle=orthogonalEdgeStyle;rounded=0;orthogonalLoop=1;jettySize=auto;html=1;exitX=0.5;exitY=1;exitDx=0;exitDy=0;entryX=0.5;entryY=0;entryDx=0;entryDy=0;" edge="1" parent="1" source="ULZJDO0v6zIy5SxoiYi7-54" target="ULZJDO0v6zIy5SxoiYi7-56">
          <mxGeometry relative="1" as="geometry" />
        </mxCell>
        <mxCell id="ULZJDO0v6zIy5SxoiYi7-54" value="World Package" style="whiteSpace=wrap;html=1;aspect=fixed;" vertex="1" parent="1">
          <mxGeometry x="510" y="430" width="110" height="110" as="geometry" />
        </mxCell>
        <mxCell id="ULZJDO0v6zIy5SxoiYi7-60" style="edgeStyle=orthogonalEdgeStyle;rounded=0;orthogonalLoop=1;jettySize=auto;html=1;exitX=0.5;exitY=1;exitDx=0;exitDy=0;entryX=0.5;entryY=0;entryDx=0;entryDy=0;entryPerimeter=0;" edge="1" parent="1" source="ULZJDO0v6zIy5SxoiYi7-56" target="ULZJDO0v6zIy5SxoiYi7-59">
          <mxGeometry relative="1" as="geometry" />
        </mxCell>
        <mxCell id="ULZJDO0v6zIy5SxoiYi7-56" value="WorldGenerator" style="whiteSpace=wrap;html=1;aspect=fixed;" vertex="1" parent="1">
          <mxGeometry x="665" y="580" width="110" height="110" as="geometry" />
        </mxCell>
        <mxCell id="ULZJDO0v6zIy5SxoiYi7-59" value="List&amp;lt;List&amp;lt;Integer&amp;gt;&amp;gt; world" style="whiteSpace=wrap;html=1;shape=mxgraph.basic.document;align=left;" vertex="1" parent="1">
          <mxGeometry x="650.63" y="750" width="138.75" height="50" as="geometry" />
        </mxCell>
      </root>
    </mxGraphModel>
  </diagram>
</mxfile>
